<svg id="Layer_1" viewBox="0 0 512 512" xmlns="http://www.w3.org/2000/svg" data-name="Layer 1"><path d="m500.412 103.702c-2.85-3.341-7.021-5.266-11.412-5.266h-346.384l-2.416-18.469c-2.229-17.004-10.497-32.546-23.281-43.763-12.783-11.214-29.266-17.391-46.412-17.391h-47.507c-8.284 0-15 6.716-15 15s6.716 15 15 15h47.507c20.485 0 37.286 14.741 39.947 35.048l31.923 244.06-.982.085c-26.527 2.323-46.38 24.967-45.198 51.529 1.143 26.583 22.871 47.379 49.485 47.379h.078l15.59-.025c-2.278 5.593-3.544 11.702-3.544 18.104 0 26.573 21.606 48.192 48.164 48.192s48.192-21.619 48.192-48.192c0-6.457-1.287-12.616-3.603-18.248l96.167-.155c-2.276 5.59-3.541 11.695-3.541 18.092 0 26.574 21.619 48.193 48.192 48.193s48.164-21.619 48.164-48.193-21.606-48.164-48.164-48.164c-.008 0-.016 0-.024 0s-245.641.396-245.641.396h-.031c-10.494 0-19.062-8.194-19.514-18.689-.467-10.485 7.371-19.416 17.831-20.332l280.389-24.32c27.065-2.338 48.139-21.937 52.439-48.776l26.985-168.996c.692-4.336-.551-8.759-3.4-12.1zm-294.442 359.484c-10.016 0-18.164-8.161-18.164-18.192s8.148-18.165 18.164-18.165 18.192 8.148 18.192 18.165-8.161 18.192-18.192 18.192zm203.572-18.504c0 10.032-8.148 18.193-18.164 18.193s-18.192-8.161-18.192-18.193 8.161-18.164 18.191-18.164h.002c10.015 0 18.163 8.149 18.163 18.164zm-180.428-163.643c-.477.045-.951.067-1.421.067-7.652 0-14.187-5.827-14.917-13.598l-9.41-100.145c-.774-8.248 5.283-15.562 13.531-16.337 8.238-.774 15.562 5.283 16.338 13.531l9.41 100.145c.774 8.248-5.283 15.562-13.531 16.337zm95.827-14.934c0 8.284-6.716 15-15 15s-15-6.716-15-15v-100.145c0-8.284 6.716-15 15-15s15 6.716 15 15zm91.574-98.737-9.438 100.145c-.732 7.769-7.267 13.593-14.916 13.593-.472 0-.946-.022-1.425-.067-8.248-.777-14.304-8.093-13.526-16.341l9.438-100.145c.776-8.248 8.095-14.312 16.341-13.526 8.248.777 14.304 8.093 13.526 16.341z"/></svg>