<svg id="Icon" viewBox="0 0 24 24" xmlns="http://www.w3.org/2000/svg"><path d="m21.75 19c0 .414-.336.75-.75.75h-18c-.414 0-.75-.336-.75-.75s.336-.75.75-.75h18c.414 0 .75.336.75.75zm-5.75-2.25c.414 0 .75-.336.75-.75v-11c0-.414-.336-.75-.75-.75s-.75.336-.75.75v11c0 .414.336.75.75.75zm-8 0c.414 0 .75-.336.75-.75v-9c0-.414-.336-.75-.75-.75s-.75.336-.75.75v9c0 .414.336.75.75.75zm12 0c.414 0 .75-.336.75-.75v-8c0-.414-.336-.75-.75-.75s-.75.336-.75.75v8c0 .414.336.75.75.75zm-8 0c.414 0 .75-.336.75-.75v-6c0-.414-.336-.75-.75-.75s-.75.336-.75.75v6c0 .414.336.75.75.75zm-8 0c.414 0 .75-.336.75-.75v-4c0-.414-.336-.75-.75-.75s-.75.336-.75.75v4c0 .414.336.75.75.75z"/></svg>