<svg id="Layer_1" enable-background="new 0 0 60 60" viewBox="0 0 60 60" xmlns="http://www.w3.org/2000/svg"><path d="m30.0009766 44.6462402c9.0244141 0 17.4833984-4.9985352 23.8193359-14.0742188l.3994141-.5722656-.3994141-.5722656c-6.3359375-9.0756836-14.7949219-14.0737305-23.8193359-14.0737305-.0009766 0 0 0-.0009766 0-9.0234375 0-17.484375 4.9985352-23.8203125 14.0737305l-.3994141.5722656.3994141.5722656c6.3369141 9.076172 14.796875 14.0742188 23.8212891 14.0742188zm0-27.2924804c8.1621094 0 15.8720703 4.4848633 21.7724609 12.6459961-5.9003906 8.1611328-13.6103516 12.6464844-21.7724609 12.6464844-8.1630859 0-15.8730469-4.4848633-21.7744141-12.6464844 5.9013672-8.1611329 13.6113281-12.6459961 21.7744141-12.6459961z"/><path d="m30 38.2893066c4.5712891 0 8.2900391-3.71875 8.2900391-8.2895508s-3.71875-8.2895507-8.2900391-8.2895507c-4.5703125 0-8.2890625 3.71875-8.2890625 8.2895508s3.71875 8.2895507 8.2890625 8.2895507zm0-14.5791015c3.46875 0 6.2900391 2.8212891 6.2900391 6.2895508s-2.8212891 6.2895507-6.2900391 6.2895507c-3.4677734 0-6.2890625-2.8212891-6.2890625-6.2895508s2.8212891-6.2895507 6.2890625-6.2895507z"/></svg>