
<svg xmlns="http://www.w3.org/2000/svg" viewBox="0 0 24 24" width="24" height="24"><path fill="currentColor" d="M12 20a.66.66 0 0 0 .46-.19l6.5-6.25a6.79 6.79 0 0 0 2.38-4.69A4.79 4.79 0 0 0 20 5.3c-1-.9-2.3-1.37-3.65-1.3-.46 0-.92.08-1.35.23-.44.14-.86.35-1.25.6l-1 .7-.8.7c-.25-.25-.5-.48-.8-.7l-1-.7A5.62 5.62 0 0 0 9 4.23C8.57 4.08 8.1 4 7.65 4 6.3 3.93 5 4.4 4 5.3c-.92.96-1.4 2.26-1.33 3.58 0 .5.08.98.24 1.44.14.44.33.86.56 1.26.2.35.45.68.7 1l.58.68c.1.1.2.2.3.27l6.5 6.27c.12.13.28.2.45.2z"/></svg>

